<svg width="16" height="10" viewBox="0 0 16 10" fill="none" xmlns="http://www.w3.org/2000/svg">
<path fill-rule="evenodd" clip-rule="evenodd" d="M12.4874 5.96316H0.860036C0.613051 5.96316 0.412831 5.7407 0.412831 5.46627V4.47248C0.412831 4.19805 0.613051 3.97559 0.860036 3.97559H12.4874C12.7343 3.97559 12.9346 4.19805 12.9346 4.47248V5.46627C12.9346 5.7407 12.7343 5.96316 12.4874 5.96316Z" fill="#61616A"/>
<path fill-rule="evenodd" clip-rule="evenodd" d="M0.810793 1.21393e-07H8.958C9.0637 -8.23601e-05 9.16509 0.0418703 9.23983 0.116612C9.31458 0.191353 9.35653 0.292747 9.35645 0.398447V1.58913C9.35653 1.69483 9.31458 1.79623 9.23983 1.87097C9.16509 1.94571 9.0637 1.98766 8.958 1.98758H0.810793C0.705092 1.98766 0.603699 1.94571 0.528957 1.87097C0.454216 1.79623 0.412264 1.69483 0.412346 1.58913V0.398447C0.412264 0.292747 0.454216 0.191353 0.528957 0.116612C0.603699 0.0418703 0.705092 -8.23601e-05 0.810793 1.21393e-07Z" fill="#61616A"/>
<path fill-rule="evenodd" clip-rule="evenodd" d="M10.6806 7.10949L13.7531 4.03698C13.7929 3.99706 13.8608 3.98849 13.9418 4.01315C14.0228 4.03782 14.1104 4.09369 14.1851 4.16846L15.027 5.0104C15.1018 5.08511 15.1577 5.17263 15.1823 5.25367C15.207 5.33471 15.1984 5.40261 15.1585 5.44241L12.086 8.51491C12.0462 8.55483 11.9783 8.56341 11.8972 8.53874C11.8162 8.51408 11.7287 8.45821 11.654 8.38343L10.812 7.54149C10.7373 7.46678 10.6814 7.37927 10.6567 7.29823C10.6321 7.21719 10.6406 7.14929 10.6806 7.10949Z" fill="#61616A"/>
<path fill-rule="evenodd" clip-rule="evenodd" d="M12.0858 1.2538L15.1583 4.3263C15.1983 4.3661 15.2068 4.43401 15.1822 4.51504C15.1575 4.59608 15.1016 4.6836 15.0268 4.75831L14.1849 5.60025C14.1102 5.67502 14.0227 5.73089 13.9416 5.75556C13.8606 5.78022 13.7927 5.77165 13.7529 5.73173L10.6804 2.65923C10.6405 2.61942 10.6319 2.55152 10.6566 2.47048C10.6812 2.38944 10.7371 2.30193 10.8119 2.22722L11.6538 1.38528C11.7285 1.3105 11.816 1.25463 11.8971 1.22997C11.9781 1.2053 12.046 1.21388 12.0858 1.2538Z" fill="#61616A"/>
<path fill-rule="evenodd" clip-rule="evenodd" d="M0.810793 7.9502H8.958C9.0637 7.95011 9.16509 7.99207 9.23983 8.06681C9.31458 8.14155 9.35653 8.24294 9.35645 8.34864V9.53933C9.35653 9.64503 9.31458 9.74642 9.23983 9.82116C9.16509 9.8959 9.0637 9.93786 8.958 9.93777H0.810793C0.705092 9.93786 0.603699 9.8959 0.528957 9.82116C0.454216 9.74642 0.412264 9.64503 0.412346 9.53933V8.34864C0.412264 8.24294 0.454216 8.14155 0.528957 8.06681C0.603699 7.99207 0.705092 7.95011 0.810793 7.9502V7.9502Z" fill="#61616A"/>
</svg>
