<?xml version="1.0" encoding="UTF-8"?>
<svg width="84px" height="85px" viewBox="0 0 84 85" version="1.1" xmlns="http://www.w3.org/2000/svg" xmlns:xlink="http://www.w3.org/1999/xlink">
    <title>E26652D4-59BD-41C5-BBA1-F8343E4E6A85@3.00x</title>
    <g id="⭐️-MM-Recursos" stroke="none" stroke-width="1" fill="none" fill-rule="evenodd">
        <g id="⚡️Logos---Others" transform="translate(-150.000000, -804.000000)">
            <g id="⚡️Logo/Complete/Other/SAR" transform="translate(142.000000, 798.000000)">
                <g id="Group" stroke-width="1" transform="translate(8.000000, 6.000000)">
                    <path d="M77.9403657,37.1666667 C74.6903657,35.75 70.1903657,35 65.9403657,35.25 C61.6070324,35.5 57.6070324,36.5833333 53.2736991,36.75 C48.1903657,36.9166667 43.3570324,35.5833333 39.0236991,34.1666667 C34.6903657,32.75 30.4403657,31.1666667 25.4403657,30.5833333 C16.7736991,29.5833333 7.35703239,32.0833333 3.02369906,36.0833333 C-1.22630094,40 -0.809634272,45 3.10703239,49 C7.02369906,53.0833333 14.1070324,56.1666667 22.0236991,58.1666667 C25.6903657,59.0833333 29.8570324,59.8333333 33.8570324,59.3333333 C38.5236991,58.75 41.7736991,56.6666667 44.8570324,54.8333333 C47.9403657,53 51.8570324,51.0833333 56.6903657,51.0833333 C63.0236991,51.1666667 66.4403657,53.0833333 72.6903657,52.75 C84.7736991,52 83.8570324,45 83.1070324,42.5833333 C82.5236991,40.5 81.1903657,38.6666667 77.9403657,37.1666667 Z" id="Path" fill="#E3F2FD"></path>
                    <path d="M51.3570324,37.4166667 C49.9403657,36 48.5236991,34.5 47.1070324,33.0833333 C46.5236991,32.5 45.8570324,31.8333333 45.2736991,31.25 C44.7736991,30.75 44.1903657,30.1666667 43.6903657,29.5833333 C43.2736991,29.1666667 42.7736991,28.6666667 42.3570324,28.25 L41.8570324,27.75 L42.2736991,27.25 C44.1903657,24.75 45.3570324,21.75 45.6070324,18.6666667 C44.6070324,18.3333333 43.3570324,17.9166667 42.0236991,17.5 C42.0236991,17.5 42.0236991,17.5833333 42.0236991,17.5833333 C41.6903657,24.8333333 35.6903657,30.5 28.3570324,30.5 C28.1903657,30.5 28.0236991,30.5 27.7736991,30.5 C21.4403657,30.0833333 16.3570324,25.4166667 15.2736991,19.3333333 C15.1070324,18.5833333 15.1070324,17.8333333 15.1070324,17 C15.1070324,15.0833333 15.5236991,13.25 16.2736991,11.5833333 C18.3570324,6.83333333 23.1070324,3.5 28.6070324,3.5 C33.5236991,3.5 37.8570324,6.08333333 40.2736991,10.1666667 C41.1903657,10.5 42.1903657,10.8333333 43.1070324,11.0833333 L43.1903657,11.0833333 C43.7736991,11.25 44.3570324,11.5 44.8570324,11.6666667 C42.6070324,4.83333333 36.1070324,-6.09036631e-15 28.6070324,-6.09036631e-15 C26.6070324,-6.09036631e-15 24.6070324,0.333333333 22.7736991,1 C18.6903657,2.5 15.4403657,5.41666667 13.5236991,9.08333333 C12.4403657,11.1666667 11.7736991,13.5 11.6070324,15.9166667 C11.6070324,16.25 11.6070324,16.6666667 11.6070324,17 C11.6070324,25.3333333 17.6070324,32.4166667 25.8570324,33.8333333 L27.0236991,34 C27.2736991,34 27.6070324,34 27.8570324,34.0833333 C28.6070324,34.0833333 29.2736991,34.0833333 30.0236991,34 L30.2736991,34 C32.6070324,33.75 34.8570324,33.0833333 36.9403657,31.9166667 L37.5236991,31.5833333 L37.9403657,32.0833333 C39.6070324,34.25 41.2736991,36.3333333 42.9403657,38.5 C43.9403657,39.75 44.9403657,41 45.8570324,42.25 C46.3570324,42.9166667 47.1070324,43.3333333 48.0236991,43.3333333 C48.1070324,43.3333333 48.1903657,43.3333333 48.1903657,43.3333333 C48.7736991,43.3333333 49.3570324,43.0833333 49.8570324,42.6666667 C50.2736991,42.3333333 50.6070324,42 51.0236991,41.6666667 L51.2736991,41.5 C51.8570324,40.9166667 52.2736991,40.25 52.2736991,39.5 C52.2736991,38.8333333 51.9403657,38.0833333 51.3570324,37.4166667 Z" id="Path" fill="#004A93"></path>
                    <path d="M53.0236991,15.6666667 C52.5236991,14.75 51.6070324,14.1666667 50.5236991,14.1666667 C50.3570324,14.1666667 50.1903657,14.1666667 50.0236991,14.25 C49.5236991,14.3333333 48.9403657,14.5833333 48.5236991,15 L47.7736991,14.75 C46.6903657,14.4166667 44.6903657,13.75 42.6070324,13 C41.3570324,12.5833333 40.1070324,12.1666667 38.9403657,11.75 C37.6903657,11.3333333 36.6903657,11 35.9403657,10.75 C35.7736991,9.66666667 34.9403657,8.75 33.8570324,8.41666667 C33.3570324,8.16666667 32.9403657,8.16666667 32.5236991,8.25 C31.8570324,8.41666667 31.1903657,8.75 30.7736991,9.33333333 C30.0236991,10.3333333 29.9403657,11.5 30.5236991,12.4166667 C30.1903657,12.8333333 30.1070324,13.0833333 30.0236991,13.25 C29.9403657,13.5 29.7736991,13.6666667 29.4403657,14.1666667 L27.9403657,16.3333333 C27.0236991,17.6666667 26.0236991,19.1666667 25.0236991,20.5 C24.6070324,20.4166667 24.1070324,20.5 23.6903657,20.6666667 L17.3570324,14.8333333 C17.1903657,15.5 17.1903657,16.25 17.1903657,16.9166667 C17.1903657,17.4166667 17.1903657,17.9166667 17.2736991,18.4166667 L21.9403657,22.6666667 C21.8570324,23 21.8570324,23.3333333 21.8570324,23.75 C21.9403657,24.9166667 22.8570324,25.9166667 24.1070324,26.25 C24.3570324,26.3333333 24.6070324,26.3333333 24.8570324,26.3333333 C25.0236991,26.3333333 25.1903657,26.3333333 25.3570324,26.25 C26.1070324,26.0833333 26.6903657,25.75 27.1070324,25.0833333 C27.7736991,24.0833333 27.8570324,23 27.3570324,22 C28.2736991,20.6666667 29.1903657,19.3333333 30.1070324,18.0833333 L30.7736991,17.1666667 C31.3570324,16.3333333 31.6070324,15.9166667 31.9403657,15.4166667 C32.1903657,15 32.5236991,14.5833333 32.9403657,13.8333333 C33.7736991,13.9166667 34.6070324,13.6666667 35.2736991,13.0833333 L36.0236991,13.3333333 C36.9403657,13.6666667 38.6070324,14.25 40.4403657,14.8333333 C40.6903657,14.9166667 40.9403657,15 41.1070324,15.0833333 C43.6903657,15.9166667 46.3570324,16.8333333 47.8570324,17.3333333 C47.8570324,17.4166667 47.8570324,17.4166667 47.8570324,17.5 C48.1070324,18.5 48.8570324,19.3333333 49.8570324,19.6666667 C50.1903657,19.75 50.4403657,19.8333333 50.7736991,19.8333333 L50.7736991,19.8333333 C50.9403657,19.8333333 51.1070324,19.8333333 51.2736991,19.75 C51.9403657,19.6666667 52.5236991,19.25 52.9403657,18.75 C53.5236991,17.9166667 53.6070324,16.75 53.0236991,15.6666667 Z M24.8570324,25.0833333 C24.7736991,25.0833333 24.6070324,25.0833333 24.5236991,25.0833333 C23.7736991,25.0833333 23.1903657,24.5833333 23.0236991,23.8333333 C22.9403657,23.4166667 23.0236991,23 23.2736991,22.6666667 C23.5236991,22.3333333 23.8570324,22.0833333 24.2736991,22 C25.1070324,21.8333333 25.9403657,22.4166667 26.1070324,23.25 C26.2736991,24.0833333 25.7736991,24.8333333 24.8570324,25.0833333 Z M33.2736991,12.6666667 C33.1903657,12.6666667 33.1070324,12.6666667 33.0236991,12.6666667 C32.2736991,12.6666667 31.6070324,12.1666667 31.5236991,11.3333333 C31.3570324,10.4166667 31.8570324,9.66666667 32.7736991,9.5 C32.8570324,9.5 33.0236991,9.5 33.1070324,9.5 C33.8570324,9.5 34.5236991,10 34.6070324,10.8333333 C34.6903657,11.75 34.1903657,12.5 33.2736991,12.6666667 Z M50.7736991,18.5833333 C50.6903657,18.5833333 50.5236991,18.5833333 50.4403657,18.5833333 C49.6903657,18.5833333 49.1070324,18.0833333 48.9403657,17.25 C48.7736991,16.3333333 49.3570324,15.5833333 50.1903657,15.5 C50.2736991,15.5 50.4403657,15.5 50.5236991,15.5 C51.2736991,15.5 51.8570324,16 52.0236991,16.75 C52.1903657,17.6666667 51.6903657,18.4166667 50.7736991,18.5833333 Z M8.02369906,4.58333333 C7.44036573,4.16666667 6.69036573,4 5.94036573,4.16666667 C5.35703239,4.25 4.85703239,4.5 4.44036573,5 C3.44036573,6.08333333 3.35703239,7.5 4.10703239,8.66666667 C4.77369906,9.66666667 5.85703239,10.0833333 7.02369906,9.91666667 C7.19036573,9.91666667 7.27369906,9.83333333 7.44036573,9.83333333 L10.2736991,12.3333333 C10.5236991,11.4166667 10.8570324,10.4166667 11.2736991,9.5 L9.27369906,7.75 C9.60703239,6.41666667 9.19036573,5.33333333 8.02369906,4.58333333 Z M6.85703239,8.5 C6.69036573,8.5 6.60703239,8.5 6.44036573,8.5 C5.69036573,8.5 5.10703239,8 4.94036573,7.25 C4.77369906,6.33333333 5.27369906,5.58333333 6.19036573,5.41666667 C6.27369906,5.41666667 6.44036573,5.41666667 6.52369906,5.41666667 C7.27369906,5.41666667 7.85703239,5.91666667 8.02369906,6.66666667 C8.19036573,7.58333333 7.69036573,8.33333333 6.85703239,8.5 Z" id="Shape" fill="#00A4E3"></path>
                </g>
                <path d="M39.98,90.22 C41.54,90.22 42.7566667,89.8766667 43.63,89.19 C44.5033333,88.5033333 44.94,87.4066667 44.94,85.9 C44.94,85.46 44.9,85.06 44.82,84.7 C44.74,84.34 44.5966667,84.01 44.39,83.71 C44.1833333,83.41 43.9066667,83.13 43.56,82.87 C43.2133333,82.61 42.7666667,82.36 42.22,82.12 L40,81.16 C39.3866667,80.9066667 38.9866667,80.63 38.8,80.33 C38.6133333,80.03 38.52,79.66 38.52,79.22 C38.52,79.0066667 38.5433333,78.8 38.59,78.6 C38.6366667,78.4 38.7233333,78.2233333 38.85,78.07 C38.9766667,77.9166667 39.1466667,77.7933333 39.36,77.7 C39.5733333,77.6066667 39.84,77.56 40.16,77.56 C40.72,77.56 41.12,77.7433333 41.36,78.11 C41.6,78.4766667 41.72,79 41.72,79.68 L44.48,79.68 L44.48,79.28 C44.48,78.6 44.37,78.0166667 44.15,77.53 C43.93,77.0433333 43.6233333,76.6433333 43.23,76.33 C42.8366667,76.0166667 42.37,75.79 41.83,75.65 C41.29,75.51 40.7,75.44 40.06,75.44 C38.6866667,75.44 37.6066667,75.7866667 36.82,76.48 C36.0333333,77.1733333 35.64,78.2266667 35.64,79.64 C35.64,80.2266667 35.7133333,80.7433333 35.86,81.19 C36.0066667,81.6366667 36.2366667,82.03 36.55,82.37 C36.8633333,82.71 37.2533333,83.0066667 37.72,83.26 C38.1866667,83.5133333 38.74,83.7466667 39.38,83.96 C39.86,84.12 40.2633333,84.2766667 40.59,84.43 C40.9166667,84.5833333 41.18,84.7533333 41.38,84.94 C41.58,85.1266667 41.7233333,85.3366667 41.81,85.57 C41.8966667,85.8033333 41.94,86.08 41.94,86.4 C41.94,87 41.7633333,87.4433333 41.41,87.73 C41.0566667,88.0166667 40.66,88.16 40.22,88.16 C39.8466667,88.16 39.5366667,88.1066667 39.29,88 C39.0433333,87.8933333 38.8466667,87.7466667 38.7,87.56 C38.5533333,87.3733333 38.4533333,87.1433333 38.4,86.87 C38.3466667,86.5966667 38.32,86.2933333 38.32,85.96 L38.32,85.54 L35.44,85.54 L35.44,86.12 C35.44,87.44 35.79,88.4533333 36.49,89.16 C37.19,89.8666667 38.3533333,90.22 39.98,90.22 Z M48.38,90 L49.04,86.98 L52.84,86.98 L53.5,90 L56.5,90 L52.72,75.72 L49.16,75.72 L45.38,90 L48.38,90 Z M52.34,84.62 L49.54,84.62 L50.92,78.2 L50.96,78.2 L52.34,84.62 Z M60.38,90 L60.38,83.96 L61.92,83.96 C62.52,83.96 62.9466667,84.12 63.2,84.44 C63.4533333,84.76 63.5933333,85.2 63.62,85.76 L63.7,88.5 C63.7133333,88.78 63.74,89.05 63.78,89.31 C63.82,89.57 63.9133333,89.8 64.06,90 L67.18,90 L67.18,89.88 C66.9133333,89.7333333 66.74,89.46 66.66,89.06 C66.6066667,88.66 66.5666667,88.08 66.54,87.32 C66.5266667,86.9333333 66.5133333,86.5833333 66.5,86.27 C66.4866667,85.9566667 66.4666667,85.6666667 66.44,85.4 C66.36,84.6 66.1533333,84.02 65.82,83.66 C65.4866667,83.3 64.96,83.0666667 64.24,82.96 L64.24,82.92 C65.0533333,82.7466667 65.6533333,82.3566667 66.04,81.75 C66.4266667,81.1433333 66.62,80.36 66.62,79.4 C66.62,78.16 66.2866667,77.2366667 65.62,76.63 C64.9533333,76.0233333 64.02,75.72 62.82,75.72 L57.5,75.72 L57.5,90 L60.38,90 Z M61.58,81.96 L60.38,81.96 L60.38,77.84 L61.74,77.84 C63.0733333,77.84 63.74,78.5 63.74,79.82 C63.74,80.5933333 63.5533333,81.1433333 63.18,81.47 C62.8066667,81.7966667 62.2733333,81.96 61.58,81.96 Z" id="SAR" fill="#61616A"></path>
            </g>
        </g>
    </g>
</svg>