<?xml version="1.0" encoding="UTF-8"?>
<svg width="100px" height="28px" viewBox="0 0 100 28" version="1.1" xmlns="http://www.w3.org/2000/svg" xmlns:xlink="http://www.w3.org/1999/xlink">
    <title>8466ABEC-8F78-4F1A-9C01-EC3CA2729639@3.00x</title>
    <g id="⭐️-MM-Recursos" stroke="none" stroke-width="1" fill="none" fill-rule="evenodd">
        <g id="⚡️Logos---Others" transform="translate(-142.000000, -663.000000)" fill="#1A365D">
            <g id="⚡️Logo/Complete/Other/Allfunds" transform="translate(142.000000, 627.000000)">
                <path d="M13.7044752,36 C21.2529295,36 27.4089505,42.1805718 27.4089505,49.84152 C27.4089505,57.5024682 21.2895725,63.68304 13.7044752,63.68304 C6.11937798,63.68304 -4.61852778e-14,57.5024682 -4.61852778e-14,49.84152 C-4.61852778e-14,42.1805718 6.15602096,36 13.7044752,36 Z M95.7481118,44.6602023 C96.9206872,44.6602023 98.2031916,44.8452494 99.5589819,45.2893623 L99.5589819,45.2893623 L98.9726942,47.0288047 C98.0566196,45.9555318 97.0306161,45.3633812 96.0046127,45.3633812 C94.4656074,45.3633812 93.8426767,46.2886165 93.8426767,47.2508612 C93.8426767,47.8800212 94.2823925,48.3981529 94.9786092,48.5461906 L94.9786092,48.5461906 L97.32376,49.0273129 C99.302481,49.4714259 100.035341,50.6187176 99.9986977,51.9880659 C99.9986977,53.9125553 98.2764775,55.1708753 95.6748258,55.1708753 C94.2823925,55.1708753 92.9998881,54.9858282 91.6440978,54.5417153 L91.6440978,54.5417153 L92.2303855,52.8022729 C93.219746,53.9495647 94.2457495,54.4676965 95.6015399,54.4676965 C97.250474,54.4676965 97.9466907,53.2833953 97.9466907,52.3211506 C97.9466907,51.6549812 97.5069749,51.0258212 96.6641863,50.8407741 L96.6641863,50.8407741 L94.2457495,50.3226423 C92.5968153,49.9895576 91.8273127,48.8052565 91.8273127,47.6949741 C91.8273127,45.9925412 93.256389,44.6602023 95.7481118,44.6602023 Z M59.8013465,44.9562776 L59.8013465,51.5069435 C59.8013465,53.3574141 60.5342061,54.4676965 62.0732114,54.4676965 C63.8687175,54.4676965 64.894721,53.2833953 64.894721,51.5069435 L64.894721,51.5069435 L64.894721,47.2878706 C64.894721,46.5846918 64.6748631,45.4744094 64.3817192,44.9562776 L64.3817192,44.9562776 L66.873442,44.9562776 L66.910085,52.4321788 C66.910085,53.3944235 67.0566569,54.2826494 67.3864438,54.9118094 L67.3864438,54.9118094 L65.3710798,54.9118094 C65.2245078,54.5787247 65.1145789,54.24564 65.0412929,53.9125553 C64.1618614,54.7637718 62.916,55.1708753 61.5235667,55.1708753 C59.4715597,55.1708753 57.7859825,53.9125553 57.7859825,51.5069435 L57.7859825,51.5069435 L57.7859825,47.2878706 C57.7859825,46.5846918 57.6760536,45.4744094 57.4928386,44.9562776 L57.4928386,44.9562776 L59.8013465,44.9562776 Z M37.1926267,44.6972118 C39.5011345,44.6972118 41.1134257,45.8074941 41.1134257,48.1760965 L41.1134257,48.1760965 L41.1134257,52.3951694 C41.1134257,53.3574141 41.2599977,54.24564 41.5897845,54.8748 L41.5897845,54.8748 L39.5744205,54.8748 C39.4278486,54.5417153 39.3179196,54.24564 39.2446336,53.9125553 C38.6583459,54.6527435 37.8522003,55.1708753 36.3864811,55.1708753 C33.8947583,55.1708753 32.2458241,54.0605929 32.2458241,52.1731129 L32.2458241,52.1731129 L32.2458241,51.729 C32.2458241,49.9155388 33.9680442,48.8422659 36.6063389,48.8422659 L36.6063389,48.8422659 L39.0980617,48.8422659 L39.0980617,48.1760965 C39.0980617,46.2886165 38.1453442,45.3633812 36.9361258,45.3633812 C35.8001933,45.3633812 34.444403,46.1775882 33.3451136,47.7319835 L33.3451136,47.7319835 L32.8321118,45.6964659 C34.40776,45.0302965 35.9101223,44.6972118 37.1926267,44.6972118 Z M8.24467093,48.2501153 L4.39715783,55.1708753 L12.0555411,55.1708753 L8.24467093,48.2501153 Z M16.306127,44.7712306 L13.6678323,44.7712306 L13.6678323,55.1708753 L16.306127,55.1708753 L16.306127,44.7712306 Z M21.9857892,41.8474871 L19.3474945,41.8474871 L19.3474945,55.1708753 L21.9857892,55.1708753 L21.9857892,41.8474871 Z M90.0318066,40.8112235 L90.0318066,52.3951694 C90.0318066,53.3574141 90.1783785,54.24564 90.5081654,54.8748 L90.5081654,54.8748 L88.4928014,54.8748 C88.3095864,54.5417153 88.2363005,54.24564 88.1630145,53.9495647 C87.4301549,54.7267623 86.4041514,55.1338659 85.194933,55.1338659 C81.9703506,55.1338659 80.2114874,53.4314329 80.2114874,50.3966612 L80.2114874,50.3966612 L80.2114874,49.5084353 C80.2114874,46.3996447 81.8604216,44.6602023 84.9384321,44.6602023 C86.1842935,44.6602023 87.24694,45.0302965 88.0164426,45.7334753 L88.0164426,45.7334753 L88.0164426,43.8459953 C88.0164426,43.1428165 87.7965847,42.0325341 87.5034408,41.5144024 L87.5034408,41.5144024 L90.0318066,40.8112235 Z M56.0637623,40.7742141 C56.6134071,40.7742141 57.1996948,40.8482329 57.8226255,41.03328 L57.8226255,41.03328 L57.0164799,42.9947788 C56.5767641,41.9955247 55.9904764,41.4403835 55.5141176,41.4403835 C55.0744018,41.4403835 54.671329,41.9585153 54.6346861,43.0687976 L54.6346861,43.0687976 L54.6346861,44.9562776 L56.3569062,44.9562776 L56.3569062,45.6224471 L54.6346861,45.6224471 L54.6346861,52.4691882 C54.6346861,53.4314329 54.781258,54.3196588 55.1110448,54.9488188 L55.1110448,54.9488188 L52.1429633,54.9488188 C52.4727501,54.3196588 52.619322,53.3944235 52.619322,52.4691882 L52.619322,52.4691882 L52.619322,45.6594565 L51.2635317,45.6594565 L51.2635317,44.9932871 L52.619322,44.9932871 L52.619322,44.2160894 C52.619322,41.9215059 54.0483983,40.7742141 56.0637623,40.7742141 Z M74.7516831,44.6602023 C77.023548,44.6602023 78.5259103,45.9185223 78.5259103,48.3241341 L78.5259103,48.3241341 L78.5259103,52.3951694 C78.5259103,53.3574141 78.6724822,54.24564 79.002269,54.8748 L79.002269,54.8748 L76.0341875,54.8748 C76.3639743,54.24564 76.5105463,53.3204047 76.5105463,52.3951694 L76.5105463,52.3951694 L76.5105463,48.2871247 C76.5105463,46.4366541 75.8509726,45.3263718 74.2020384,45.3263718 C72.4065323,45.3263718 71.3805288,46.5106729 71.3805288,48.2871247 L71.3805288,48.2871247 L71.3805288,52.3951694 C71.3805288,53.3574141 71.5271007,54.24564 71.8568876,54.8748 L71.8568876,54.8748 L68.888806,54.8748 C69.2185929,54.24564 69.3651648,53.3204047 69.3651648,52.3951694 L69.3651648,52.3951694 L69.3651648,47.3988988 C69.3651648,46.4366541 69.2185929,45.5484282 68.888806,44.9192682 L68.888806,44.9192682 L70.977456,44.9192682 C71.1240279,45.2893623 71.1973139,45.5854376 71.2339569,45.9185223 C72.1500314,45.0302965 73.3958928,44.6602023 74.7516831,44.6602023 Z M49.9077414,40.8112235 L49.9077414,52.3951694 C49.9077414,53.3574141 50.0543133,54.24564 50.3841002,54.8748 L50.3841002,54.8748 L47.4160186,54.8748 C47.7458055,54.24564 47.8923774,53.3204047 47.8923774,52.3951694 L47.8923774,52.3951694 L47.8923774,43.8459953 C47.8923774,43.1428165 47.6725195,42.0325341 47.3793756,41.5144024 L47.3793756,41.5144024 L49.9077414,40.8112235 Z M45.2907257,40.8112235 L45.2907257,52.3951694 C45.2907257,53.3574141 45.4372976,54.24564 45.7670844,54.8748 L45.7670844,54.8748 L42.7990029,54.8748 C43.1287897,54.24564 43.2753617,53.3204047 43.2753617,52.3951694 L43.2753617,52.3951694 L43.2753617,43.8459953 C43.2753617,43.1428165 43.0555038,42.0325341 42.7623599,41.5144024 L42.7623599,41.5144024 L45.2907257,40.8112235 L45.2907257,40.8112235 Z M39.1347047,49.5454447 L36.6429819,49.5454447 C35.3971205,49.5454447 34.517689,50.3596518 34.517689,51.729 L34.517689,51.729 L34.517689,52.1731129 C34.517689,53.6534894 35.3238346,54.5047059 36.3864811,54.5047059 C38.6583459,54.5047059 39.1347047,52.6172259 39.1347047,51.4329247 L39.1347047,51.4329247 L39.1347047,49.5454447 Z M85.231576,45.3263718 C83.2528549,45.3263718 82.5199953,46.8437576 82.5199953,49.5084353 L82.5199953,49.5084353 L82.5199953,50.3966612 C82.5199953,53.0243294 83.2528549,54.4676965 85.194933,54.4676965 C86.8438672,54.4676965 88.0164426,53.3944235 88.0164426,51.5069435 L88.0164426,51.5069435 L88.0530856,48.2871247 C88.0530856,46.4366541 86.8805102,45.3263718 85.231576,45.3263718 Z" id="Combined-Shape"></path>
            </g>
        </g>
    </g>
</svg>