<svg width="300" height="300" viewBox="0 0 300 300" fill="none" xmlns="http://www.w3.org/2000/svg">
<mask id="mask0_925_18713" style="mask-type:alpha" maskUnits="userSpaceOnUse" x="2" y="42" width="272" height="218">
<path fill-rule="evenodd" clip-rule="evenodd" d="M2.57593 42.1278H273.512V259.608H2.57593V42.1278Z" fill="white"/>
</mask>
<g mask="url(#mask0_925_18713)">
<path fill-rule="evenodd" clip-rule="evenodd" d="M106.832 46.8934C149.24 37.5359 190.894 42.9629 220.854 54.4599C251.11 66.2253 269.663 84.0584 272.952 105.652C276.272 127.449 264.515 150.431 246.45 174.133C228.089 197.564 203.408 221.7 174.475 239.322C118.695 275.457 51.333 263.451 15.6623 202.239C-20.0084 141.448 19.489 64.0757 106.832 46.8934Z" fill="#E3F2FD"/>
</g>
<mask id="mask1_925_18713" style="mask-type:alpha" maskUnits="userSpaceOnUse" x="133" y="65" width="166" height="166">
<path fill-rule="evenodd" clip-rule="evenodd" d="M133.297 65.319H298.949V230.951H133.297V65.319Z" fill="white"/>
</mask>
<g mask="url(#mask1_925_18713)">
<path fill-rule="evenodd" clip-rule="evenodd" d="M240.369 227.266C261.539 220.76 278.896 206.451 289.251 186.928C299.639 167.372 301.765 144.92 295.228 123.72C288.698 102.614 274.388 85.2963 254.936 74.97C214.613 53.5697 164.376 68.9565 142.983 109.288C132.596 128.864 130.486 151.337 137.024 172.544C143.537 193.657 157.839 210.942 177.281 221.275C196.798 231.622 219.201 233.756 240.369 227.266ZM151.807 167.989C146.473 150.711 148.205 132.453 156.645 116.545C174.049 83.7343 214.877 71.2166 247.677 88.6313C263.503 97.0302 275.141 111.11 280.428 128.275C285.753 145.546 284.03 163.795 275.607 179.677C267.184 195.559 253.068 207.206 235.83 212.475C218.624 217.761 200.392 216.029 184.525 207.622C168.725 199.224 157.084 185.163 151.807 167.989Z" fill="#283C57"/>
</g>
<path fill-rule="evenodd" clip-rule="evenodd" d="M126.396 186.558C132.435 184.794 138.476 183.037 144.523 181.265C147.299 180.423 149.513 178.546 150.724 176.202C149.778 173.933 148.935 171.606 148.206 169.217C147.451 166.747 146.81 164.252 146.312 161.732C144.002 160.49 141.115 160.152 138.355 161.003C132.299 162.759 126.228 164.533 120.139 166.312C114.364 168.068 113.289 173.188 115.134 178.898V178.929C116.915 184.681 120.692 188.331 126.396 186.558Z" fill="#283C57"/>
<path fill-rule="evenodd" clip-rule="evenodd" d="M20.4513 225.742L10.5457 193.409L119.41 160.057L129.315 192.398L20.4513 225.742Z" fill="#3269B3"/>
<path fill-rule="evenodd" clip-rule="evenodd" d="M121.56 194.772L111.645 162.439L119.41 160.057L129.316 192.398L121.56 194.772Z" fill="white"/>
<mask id="mask2_925_18713" style="mask-type:alpha" maskUnits="userSpaceOnUse" x="0" y="193" width="21" height="36">
<path fill-rule="evenodd" clip-rule="evenodd" d="M0 193.408H20.4513V228.109H0V193.408Z" fill="white"/>
</mask>
<g mask="url(#mask2_925_18713)">
<path fill-rule="evenodd" clip-rule="evenodd" d="M12.6953 228.109C1.04044 221.925 -3.3964 207.454 2.79758 195.774C5.38029 194.98 7.963 194.195 10.5457 193.408C13.8491 204.189 17.1547 214.962 20.4513 225.742C17.8686 226.529 15.2859 227.323 12.6953 228.109Z" fill="#3269B3"/>
</g>
<path fill-rule="evenodd" clip-rule="evenodd" d="M62.033 183.784C62.033 183.784 86.9229 183.833 96.533 183.982C103.182 184.084 103.792 174.604 101.168 173.179C93.2037 168.843 68.3703 166.619 68.3703 166.619L51.4778 182.134C51.4778 182.134 52.4229 182.109 62.033 183.784Z" fill="#283C57"/>
<path fill-rule="evenodd" clip-rule="evenodd" d="M85.5037 132.992C85.5037 132.992 91.9052 131.198 94.6887 139.555C98.9642 152.378 98.5864 164.145 97.992 166.651C97.7202 167.803 96.8947 171.788 89.7477 171.942C86.8514 172.008 88.0063 165.791 88.0063 165.791C88.0063 165.791 86.1454 160.514 84.165 151.585C82.1834 142.657 85.5037 132.992 85.5037 132.992Z" fill="#00A4E3"/>
<path fill-rule="evenodd" clip-rule="evenodd" d="M90.5646 133.712L74.1537 128.403L61.7296 127.568L48.1168 131.688C48.1168 131.688 43.6653 134.758 47.8044 144.624C51.9345 154.492 50.3465 169.955 50.3465 169.955L85.4646 171.079C85.4646 171.079 86.1221 156.786 88.4556 142.489C88.9766 139.298 89.0409 135.546 90.5646 133.712Z" fill="#00A4E3"/>
<path fill-rule="evenodd" clip-rule="evenodd" d="M66.4773 170.39H68.266C70.1348 156.589 70.0547 142.348 67.9942 128.596C67.4472 128.919 66.9183 129.241 66.3724 129.56C66.8224 143.624 66.0521 157.689 66.4773 170.39Z" fill="#3269B3"/>
<path fill-rule="evenodd" clip-rule="evenodd" d="M73.4557 132.271C73.2154 134.171 71.6669 135.816 70.0305 135.893H65.3951C63.7654 135.816 62.2102 134.171 61.9688 132.271C61.5921 129.143 61.2143 126.013 60.8376 122.881C60.5816 121.005 61.697 117.24 64.1681 116.125C66.4214 115.136 69.0121 115.136 71.2666 116.125C73.7286 117.24 74.8508 121.005 74.5948 122.881C74.2181 126.013 73.8324 129.143 73.4557 132.271Z" fill="#C1E3FC"/>
<path fill-rule="evenodd" clip-rule="evenodd" d="M67.5279 136.127L64.5843 140.957L59.1865 134.208L60.0358 130.657L61.785 129.22L61.8087 131.892L67.5279 136.127Z" fill="#3269B3"/>
<path fill-rule="evenodd" clip-rule="evenodd" d="M67.8892 136.127L70.8328 140.957L75.8549 134.667L75.0283 130.813L73.7764 129.191L73.2632 132.347L67.8892 136.127Z" fill="#3269B3"/>
<path fill-rule="evenodd" clip-rule="evenodd" d="M67.007 110.169C65.7145 110.169 64.5687 110.834 63.91 111.848H62.6356C61.0386 111.848 59.7551 113.134 59.7551 114.725V121.831H61.7762V118.938C61.7762 117.822 62.6829 116.917 63.8063 116.917H64.9848H63.116H64.3521C66.3969 116.917 68.0649 115.253 68.0649 113.204V110.169H67.007Z" fill="#283C57"/>
<path fill-rule="evenodd" clip-rule="evenodd" d="M63.4208 124.476C63.4208 125.448 62.6358 126.238 61.6636 126.238H61.5125C60.5415 126.238 59.7554 125.448 59.7554 124.476V122.338C59.7554 121.368 60.5415 120.579 61.5125 120.579H61.6636C62.3866 120.579 62.9956 121.01 63.2764 121.627" fill="#F2FAFD"/>
<path fill-rule="evenodd" clip-rule="evenodd" d="M65.4341 112.992V110.169H66.5969H69.6702H71.5299C73.5848 110.169 75.2439 111.831 75.2439 113.88V116.702H74.0732H71.0021H69.148C67.0954 116.702 65.4341 115.04 65.4341 112.992Z" fill="#283C57"/>
<path fill-rule="evenodd" clip-rule="evenodd" d="M74.7232 127.178C74.7153 128.651 73.5841 131.153 71.7153 131.942C69.1721 132.992 66.1642 132.992 63.63 131.942C61.7522 131.153 60.6379 128.654 60.6221 127.178V114.606C60.6131 113.122 62.0984 111.874 63.9266 111.836H71.4176C73.2469 111.872 74.7311 113.122 74.7232 114.606V127.178Z" fill="#F2FAFD"/>
<path fill-rule="evenodd" clip-rule="evenodd" d="M69.116 110.169C70.4153 110.169 71.5544 110.834 72.2209 111.848H73.4965C75.0754 111.848 76.3679 113.134 76.3679 114.725V121.831H74.3457V118.938C74.3457 117.822 73.4401 116.917 72.3247 116.917H72.2999H73.0149H69.742C67.6882 116.917 66.0281 115.253 66.0281 113.204V110.169H69.116Z" fill="#283C57"/>
<path fill-rule="evenodd" clip-rule="evenodd" d="M72.7253 122.336C72.7253 121.365 73.5193 120.579 74.4904 120.579H74.6426C75.6137 120.579 76.3998 121.365 76.3998 122.336V124.474C76.3998 125.445 75.6137 126.237 74.6426 126.237H74.4904C73.7765 126.237 73.1505 125.805 72.8787 125.188" fill="#F2FAFD"/>
<path fill-rule="evenodd" clip-rule="evenodd" d="M66.0278 113.719C66.0684 113.482 66.1 113.243 66.1 112.991V110.17H64.9282H63.4688C61.4162 110.17 59.7549 111.831 59.7549 113.88V116.703H60.5331H60.9267H62.3861C62.6432 116.703 62.9004 116.676 63.1395 116.621C63.4372 115.17 64.5763 114.023 66.0278 113.719Z" fill="#283C57"/>
<path fill-rule="evenodd" clip-rule="evenodd" d="M33.43 231.376C33.0522 231.839 33.333 233.062 33.333 233.062C33.333 233.062 40.0323 233.807 42.1898 233.301C42.7424 233.172 43.6977 232.685 44.5875 232.177C44.7319 232.092 45.0048 231.575 45.1492 231.49C45.4131 231.328 45.5575 231.597 45.7909 231.452C46.383 231.077 46.8082 230.786 46.8082 230.747C47.4026 227.672 46.6165 226.436 46.6165 226.436C46.6165 226.436 40.9142 224.539 39.8394 225.858C37.3278 228.974 34.2714 230.358 33.43 231.376Z" fill="#3269B3"/>
<path fill-rule="evenodd" clip-rule="evenodd" d="M96.0515 228.035L96.5162 233.096L101.586 233.591C101.586 233.591 101.94 232.914 102.365 232.956C102.725 232.992 103.125 233.742 103.616 233.788C104.682 233.897 105.861 234.008 106.335 234.057C107.289 234.149 116.506 235.05 116.506 235.05C116.506 235.05 116.835 234.027 116.594 233.641C116.473 233.443 115.655 233.035 115.103 232.823C112.552 231.832 105.292 228.803 104.233 226.175C102.949 222.976 96.0515 228.035 96.0515 228.035Z" fill="#3269B3"/>
<path fill-rule="evenodd" clip-rule="evenodd" d="M88.3913 163.955L71.2654 170.952C71.2654 170.952 83.4176 172.685 91.0135 171.141C96.1473 170.088 88.6237 163.733 88.3913 163.955Z" fill="#F2FAFD"/>
<path fill-rule="evenodd" clip-rule="evenodd" d="M49.5047 174.613C49.5047 174.613 47.8513 190.26 48.0836 198.531C48.2686 204.769 48.2855 216.728 46.8013 226.916C46.7054 227.54 38.7396 227.072 38.7396 227.072C38.7396 227.072 35.8761 188.284 35.0257 181.898C34.1832 175.51 36.6532 170.902 49.5047 174.613Z" fill="#283C57"/>
<path fill-rule="evenodd" clip-rule="evenodd" d="M99.6288 178.385C99.6288 178.385 97.054 182.441 90.0187 183.401C87.4687 183.75 94.1183 228.803 94.1183 228.803L104.53 225.472L102.517 175.644L99.6288 178.385Z" fill="#283C57"/>
<path fill-rule="evenodd" clip-rule="evenodd" d="M70.9123 183.401C70.9123 183.401 57.3086 185.345 48.2296 186.294C44.9003 186.644 42.012 177.325 41.6274 176.919C39.1969 174.374 36.7992 174.698 36.8781 174.604C38.8518 172.476 49.0383 170.503 59.6917 168.006C70.3349 165.511 71.9556 167.081 71.9556 167.081L70.9123 183.401Z" fill="#283C57"/>
<path fill-rule="evenodd" clip-rule="evenodd" d="M59.6917 168.005C49.0394 170.503 38.8518 172.477 36.8781 174.605C36.7992 174.699 39.1969 174.374 41.6274 176.918C41.7311 177.031 42.3492 180.022 42.7823 181.088C41.0499 177.959 66.0762 169.141 71.483 166.858C70.4725 166.533 67.5277 166.167 59.6917 168.005Z" fill="#283C57"/>
<path fill-rule="evenodd" clip-rule="evenodd" d="M55.6405 131.837C55.6405 131.837 50.1695 127.552 44.8191 135.506C36.983 147.157 33.5747 159.557 32.3308 163.144C31.3755 165.897 31.9056 173.673 35.1063 176.881C35.8766 177.653 40.512 177.032 40.512 177.032L43.5526 174.933L42.277 172.488L42.2048 170.557C42.2048 170.557 46.0947 161.179 50.8687 152.317C55.6405 143.454 55.6405 131.837 55.6405 131.837Z" fill="#00A4E3"/>
<path fill-rule="evenodd" clip-rule="evenodd" d="M42.2686 167.471L60.0284 168.396C60.0284 168.396 42.9273 176.244 42.3566 174.892C39.157 167.227 42.2686 167.471 42.2686 167.471Z" fill="#F2FAFD"/>
<path fill-rule="evenodd" clip-rule="evenodd" d="M52.0391 166.924C53.0824 166.425 52.9854 166.416 52.9854 166.416C52.9854 166.416 53.9327 167.544 55.3042 167.755C55.9933 167.857 58.1914 167.887 58.1914 167.887L61.4632 167.966L62.9801 167.884C62.9801 167.884 63.8384 167.773 64.0628 167.918C64.7203 168.339 64.1587 168.682 64.1587 168.682L58.3042 169.51L63.9342 170.212C63.9342 170.212 64.6324 170.419 64.6718 170.801C64.6966 171.158 64.4643 171.147 64.4643 171.147L57.9275 171.848L60.791 172.529C60.791 172.529 61.4801 172.753 61.5286 173.124C61.585 173.527 61.6075 173.64 61.6075 173.64L55.5996 173.051C55.5996 173.051 51.0038 167.422 52.0391 166.924Z" fill="#C1E3FC"/>
<path fill-rule="evenodd" clip-rule="evenodd" d="M58.5363 170.547L62.4746 171.267C62.4746 171.267 63.3735 171.331 63.766 171.617C64.2239 171.951 63.9588 172.355 63.9588 172.355L57.9272 171.847L58.5363 170.547Z" fill="#C1E3FC"/>
<path fill-rule="evenodd" clip-rule="evenodd" d="M83.2259 173.642L83.2417 173.608L83.2259 172.488H48.2375V173.608V173.642L48.3571 173.853C48.9503 174.826 50.0184 174.998 51.2454 174.998H80.209C81.4372 174.998 82.503 174.826 83.0973 173.853L83.2259 173.642Z" fill="#004A93"/>
<path fill-rule="evenodd" clip-rule="evenodd" d="M54.1567 173.538H77.321V172.747H54.1567V173.538Z" fill="#00A4E3"/>
<path fill-rule="evenodd" clip-rule="evenodd" d="M83.2016 172.61L83.2896 149.669C83.2975 149.069 82.808 148.578 82.1979 148.578H49.4561C48.855 148.578 48.3644 149.069 48.3565 149.669L48.2686 172.61H83.2016Z" fill="#004A93"/>
<path fill-rule="evenodd" clip-rule="evenodd" d="M67.9045 160.594C67.8966 161.763 66.9414 162.713 65.7707 162.713C64.6 162.713 63.6527 161.763 63.6617 160.594C63.6696 159.424 64.6158 158.475 65.7876 158.475C66.9662 158.475 67.9136 159.424 67.9045 160.594Z" fill="white"/>
<path fill-rule="evenodd" clip-rule="evenodd" d="M39.9667 176.34L38.7476 168.555L40.7686 166.473L45.2528 167.192L44.3382 175.806L39.9667 176.34Z" fill="#3269B3"/>
<path fill-rule="evenodd" clip-rule="evenodd" d="M94.4073 170.755L94.8809 167.892L89.2103 162.799L86.137 164.183L90.1486 171.865L94.4073 170.755Z" fill="#3269B3"/>
</svg>
