<?xml version="1.0" encoding="UTF-8"?>
<svg width="34px" height="30px" viewBox="0 0 34 30" version="1.1" xmlns="http://www.w3.org/2000/svg" xmlns:xlink="http://www.w3.org/1999/xlink">
    <title>⚡️Logo/Elemento/Favicon/Positive Copy</title>
    <g id="⭐️-MM-Recursos" stroke="none" stroke-width="1" fill="none" fill-rule="evenodd">
        <g id="⚛️-Favicons" transform="translate(-1055.000000, -161.000000)">
            <g id="⚡️Logo/Elemento/Imagotipo/White" transform="translate(1055.000000, 161.000000)">
                <path d="M5.34846154,11.7356828 C5.34846154,5.25991189 10.54,-1.42108547e-14 16.9607692,-1.42108547e-14 C23.3684615,-1.42108547e-14 28.5730769,5.24669604 28.5730769,11.7356828 L28.5730769,29.9207048 L5.34846154,29.9207048 L5.34846154,11.7356828 L5.34846154,11.7356828 Z" id="Shape" fill="#FFFFFF"></path>
                <path d="M14.62,22.7180617 L14.6069231,15.8193833 C13.8876923,18.2246696 13.1030769,20.6167401 12.3184615,23.0088106 L14.2276923,23.0088106 C14.4892308,22.9955947 14.62,22.9162996 14.62,22.7180617 L14.62,22.7180617 Z M19.0138462,22.9955947 L20.7792308,22.9955947 L18.6346154,16.3215859 L18.6346154,22.5726872 C18.6346154,22.8502203 18.7653846,22.9955947 19.0138462,22.9955947 L19.0138462,22.9955947 Z M27.5661538,22.7048458 L27.5661538,15.8061674 C26.8469231,18.2114537 26.0623077,20.6167401 25.2646154,22.9955947 L27.2,22.9955947 C27.4746154,22.9955947 27.5661538,22.9162996 27.5661538,22.7048458 L27.5661538,22.7048458 Z M6.06769231,22.9955947 L7.80692308,22.9955947 L5.66230769,16.3348018 L5.66230769,22.7048458 C5.66230769,22.9823789 5.98923077,22.9955947 6.06769231,22.9955947 L6.06769231,22.9955947 Z M12.2007692,23.339207 C11.9261538,24.1718062 11.6515385,24.9911894 11.3769231,25.8105727 L8.72230769,25.8105727 L8.01615385,23.6167401 L8.01615385,25.8105727 L3.55271368e-14,25.8105727 L3.55271368e-14,22.9955947 L1.87,22.9955947 C2.14461538,22.9955947 2.23615385,22.9030837 2.23615385,22.7048458 L2.23615385,13.0837004 C2.23615385,12.8722467 2.14461538,12.7929515 1.87,12.7929515 L3.55271368e-14,12.7929515 L3.55271368e-14,9.97797357 L7.88538462,9.97797357 L10.5530769,18.6211454 C11.2069231,16.2026432 13.3776923,9.97797357 13.3776923,9.97797357 L20.8707692,9.97797357 L23.5384615,18.6211454 C24.1923077,16.2026432 26.3630769,9.97797357 26.3630769,9.97797357 L33.9607692,9.97797357 L33.9607692,12.7929515 L31.9992308,12.7929515 C31.7246154,12.7929515 31.6330769,12.8854626 31.6330769,13.0837004 L31.6330769,22.5859031 C31.6330769,22.876652 31.7638462,23.0088106 32.0123077,23.0088106 L33.9607692,23.0088106 L33.9607692,25.8237885 L25.1992308,25.8237885 L25.1992308,23.2995595 C24.9246154,24.1453744 24.6369231,24.9779736 24.3623077,25.8237885 L21.7076923,25.8237885 L20.9623077,23.5638767 L20.9623077,25.8237885 L12.2007692,25.8237885 L12.2007692,23.339207 L12.2007692,23.339207 Z" id="Shape" fill="#FFFFFF"></path>
                <path d="M5.07384615,12.7665198 L5.07384615,22.8370044 C5.07384615,23.3656388 5.59692308,23.5903084 6.05461538,23.5903084 L7.41461538,23.5903084 L7.41461538,25.2290749 L0.562307692,25.2290749 L0.562307692,23.5903084 L1.85692308,23.5903084 C2.56307692,23.5903084 2.79846154,23.3656388 2.79846154,22.8370044 L2.79846154,12.9515419 C2.79846154,12.4229075 2.44538462,12.1982379 1.94846154,12.1982379 L0.562307692,12.1982379 L0.562307692,10.5594714 L7.44076923,10.5594714 L10.3961538,20.1409692 L10.4353846,20.1409692 L13.7569231,10.5594714 L20.4130769,10.5594714 L23.3684615,20.1409692 L23.4076923,20.1409692 L26.7292308,10.5594714 L33.3461538,10.5594714 L33.3461538,12.1982379 L31.8815385,12.1982379 C31.3715385,12.1982379 31.0315385,12.4229075 31.0315385,12.9515419 L31.0315385,22.5330396 C31.0315385,23.246696 31.3584615,23.5903084 31.9730769,23.5903084 L33.3461538,23.5903084 L33.3461538,25.2290749 L25.7615385,25.2290749 L25.7615385,23.5903084 L27.2,23.5903084 C27.7884615,23.5903084 28.1415385,23.2863436 28.1415385,22.8370044 L28.1415385,12.7665198 L28.1023077,12.7665198 L23.9176923,25.215859 L22.1,25.215859 L18.0984615,12.7665198 L18.0592308,12.7665198 L18.0592308,22.5198238 C18.0592308,23.2334802 18.3861538,23.5770925 19.0007692,23.5770925 L20.3738462,23.5770925 L20.3738462,25.215859 L12.7761538,25.215859 L12.7761538,23.5770925 L14.2146154,23.5770925 C14.8030769,23.5770925 15.1561538,23.2731278 15.1561538,22.8237885 L15.1561538,12.7665198 L15.1169231,12.7665198 L10.9323077,25.215859 L9.12769231,25.215859 L5.11307692,12.7665198 L5.07384615,12.7665198 L5.07384615,12.7665198 Z" id="Shape" fill="#00A4E3"></path>
            </g>
        </g>
    </g>
</svg>