<?xml version="1.0" encoding="UTF-8"?>
<svg width="100px" height="70px" viewBox="0 0 100 70" version="1.1" xmlns="http://www.w3.org/2000/svg" xmlns:xlink="http://www.w3.org/1999/xlink">
    <title>350967CC-7916-4DB2-A057-69FA7F87D88E@3.00x</title>
    <g id="⭐️-MM-Recursos" stroke="none" stroke-width="1" fill="none" fill-rule="evenodd">
        <g id="⚡️Logos---Others" transform="translate(-142.000000, -489.000000)" fill="#149CD8" fill-rule="nonzero">
            <g id="⚡️Logo/Complete/Other/Salesforce" transform="translate(142.000000, 474.000000)">
                <path d="M26.1717874,15 C32.4736488,15 38.0578605,17.9827316 41.6236824,22.625028 C44.8531061,19.2610451 49.3384167,17.1753756 54.2946849,17.1753756 C60.8880915,17.1753756 66.6517156,20.8533303 69.7241534,26.3254093 C72.3929132,25.136802 75.3307917,24.4640054 78.4480825,24.4640054 C90.3565822,24.4640054 100,34.1971294 100,46.2177618 C100,58.2383943 90.3565822,67.9715183 78.4480825,67.9715183 C76.9903566,67.9715183 75.5774837,67.8145324 74.209464,67.5454138 C71.5182776,72.3671227 66.3601704,75.6189729 60.461987,75.6189729 C57.9950662,75.6189729 55.6402781,75.058309 53.5770352,74.0266876 C50.8409957,80.4631083 44.4494281,84.993272 37.0262391,84.993272 C29.2890783,84.993272 22.6732451,80.1042835 20.1614712,73.2193317 C19.0625701,73.4435972 17.8963893,73.5781565 16.7302086,73.5781565 C7.46804216,73.5781565 -3.55271368e-14,66.0428347 -3.55271368e-14,56.7133887 C-3.55271368e-14,50.4788069 3.36398296,45.0291545 8.34267773,42.1137026 C7.31105629,39.7589146 6.75039246,37.1350078 6.75039246,34.3989684 C6.75039246,23.679076 15.451895,15 26.1717874,15 Z M58.2417582,39.4225163 C57.1877102,39.4225163 56.3579278,39.7140614 55.797264,40.2971518 C55.2141736,40.8802422 54.8329222,41.7548778 54.6310832,42.9210585 L54.5638035,43.3247365 L53.2406369,43.3247365 C53.2406369,43.3247365 53.083651,43.3247365 53.0387979,43.5041489 L52.8145324,44.7151828 C52.7921059,44.8273155 52.8593855,44.8945952 52.9939448,44.8945952 L54.2722584,44.8945952 L52.9715183,52.1383718 C52.8593855,52.7214622 52.7472527,53.1924198 52.63512,53.5736712 C52.5005607,53.9324961 52.3884279,54.2016147 52.231442,54.4034537 C52.0744562,54.5828661 51.9398968,54.739852 51.6932048,54.8071316 C51.4913658,54.8744113 51.2671002,54.8968379 51.0204082,54.8968379 C50.8858488,54.8968379 50.6840099,54.8744113 50.5494505,54.8519847 C50.4148912,54.8295582 50.3476116,54.7847051 50.2354788,54.7622785 C50.2354788,54.7622785 50.0784929,54.6949989 50.0336398,54.8519847 C49.9887867,54.9865441 49.6523884,55.9060327 49.6075353,56.0405921 C49.5626822,56.1527248 49.6299619,56.242431 49.6972415,56.2648576 C49.876654,56.3321373 49.9887867,56.3545638 50.2354788,56.4218435 C50.5494505,56.4891231 50.8409957,56.5115497 51.0876878,56.5115497 C51.6259251,56.5115497 52.0968827,56.44427 52.5005607,56.2872841 C52.9042386,56.1302983 53.2630635,55.8836062 53.5770352,55.5472079 C53.9134335,55.1659565 54.137699,54.7847051 54.339538,54.2464678 C54.541377,53.7082305 54.7207894,53.0578605 54.8553487,52.2953577 L56.1560888,44.9170218 L58.0623458,44.9170218 C58.0623458,44.9170218 58.2193317,44.9170218 58.2641848,44.7376093 L58.4884503,43.5265755 C58.5108769,43.4144427 58.4435972,43.347163 58.3090379,43.347163 L56.447634,43.347163 C56.447634,43.3023099 56.5373402,42.6519399 56.7616057,42.046423 C56.851312,41.7773043 57.0307244,41.5754654 57.1652837,41.4184795 C57.299843,41.2839202 57.4792554,41.1717874 57.6586679,41.1045077 C57.8380803,41.0372281 58.0399193,41.0148015 58.2866113,41.0148015 C58.4660238,41.0148015 58.6230096,41.0372281 58.757569,41.0596546 C58.9369814,41.1045077 59.004261,41.1269343 59.0491142,41.1269343 C59.2285266,41.1942139 59.2733797,41.1269343 59.2958062,41.0372281 L59.7443373,39.8261942 C59.7443373,39.7140614 59.6322045,39.6467818 59.609778,39.6243552 C59.4303656,39.5570756 59.2509531,39.534649 59.0266876,39.4897959 C58.8024221,39.4449428 58.5333034,39.4225163 58.2417582,39.4225163 Z M39.6277192,43.1901772 C38.9100695,43.1901772 38.2372729,43.3023099 37.7214622,43.5714286 C37.1832249,43.8181207 36.7346939,44.154519 36.375869,44.5806235 C36.0170442,45.006728 35.7703521,45.5001121 35.5909397,46.0832025 C35.4115272,46.6438663 35.3442476,47.2718098 35.3442476,47.9221799 C35.3442476,48.5949765 35.4339538,49.2229199 35.6133662,49.7835838 C35.7927786,50.3442476 36.0618973,50.8376318 36.4431487,51.2637363 C36.8244001,51.6674142 37.3177843,52.0038125 37.9008746,52.228078 C38.483965,52.4523436 39.2016147,52.5644763 40.0089706,52.5644763 C41.6909621,52.5644763 42.5655977,52.1832249 42.9244225,51.981386 C42.9917022,51.9365329 43.0589818,51.8916797 42.9692756,51.7122673 L42.5880242,50.6582193 C42.5207446,50.5012335 42.3637587,50.5685131 42.3637587,50.5685131 C41.9376542,50.725499 41.3545638,50.9946176 39.9865441,50.9946176 C39.0894819,50.9946176 38.4166854,50.725499 38.0130074,50.321821 C37.5869029,49.8957165 37.3626374,49.267773 37.3402108,48.3931375 L43.1262615,48.3931375 C43.1262615,48.3931375 43.2832474,48.3931375 43.3056739,48.2361516 C43.3056739,48.1240188 43.5075129,47.0026912 43.1262615,45.7019511 C42.9917022,45.1412873 42.6104508,44.60305 42.3861852,44.3563579 C42.0049338,43.95268 41.646109,43.6835613 41.2872841,43.5265755 C40.8163265,43.3247365 40.2556627,43.1901772 39.6277192,43.1901772 Z M18.1206549,43.1453241 L17.9188159,43.1453241 C16.0349854,43.1453241 14.7342453,44.2890783 14.7342453,45.9037901 L14.7342453,45.9486432 C14.7342453,47.6530612 16.1695447,48.2137251 17.5375645,48.5949765 L17.76183,48.6622561 C18.7485983,48.9762279 19.6008074,49.2229199 19.6008074,49.9181431 L19.6008074,49.9629962 C19.6008074,50.5909397 19.0401435,51.0618973 18.165508,51.0618973 C17.8291097,51.0618973 16.707782,51.0618973 15.5191747,50.2993945 C15.3846154,50.2096883 15.2949092,50.1648352 15.1827764,50.075129 C15.1154967,50.0302758 14.9809374,49.9854227 14.9136578,50.1648352 L14.4875533,51.3085894 C14.4202736,51.4655752 14.5099798,51.5104283 14.5324064,51.5328549 C14.7118188,51.6674142 14.9136578,51.7571204 15.0930702,51.8692532 C16.1022651,52.4074905 17.0666069,52.5644763 18.0758017,52.5644763 C20.1166181,52.5644763 21.3949316,51.4655752 21.3949316,49.7163041 L21.3949316,49.671451 C21.3949316,48.0567392 19.9596322,47.4512222 18.614039,47.0251177 L18.4346266,46.9802646 C17.4254317,46.6438663 16.5507961,46.3747477 16.5507961,45.7019511 L16.5507961,45.657098 C16.5507961,45.0740076 17.0666069,44.6703297 17.8515362,44.6703297 C18.7261718,44.6703297 19.7802198,44.9618749 20.4530164,45.3431263 C20.4530164,45.3431263 20.6548553,45.4776856 20.722135,45.2758466 C20.7669881,45.1637138 21.1033864,44.2442252 21.1482395,44.154519 C21.1930926,44.0423862 21.125813,43.9751065 21.0585333,43.9302534 C20.2960305,43.4592958 19.219556,43.1453241 18.1206549,43.1453241 Z M86.050684,43.1901772 C85.3330343,43.1901772 84.6602377,43.3023099 84.144427,43.5714286 C83.6061897,43.8181207 83.1576587,44.154519 82.7988338,44.5806235 C82.440009,45.006728 82.1933169,45.5001121 82.0139045,46.0832025 C81.834492,46.6438663 81.7672124,47.2718098 81.7672124,47.9221799 C81.7672124,48.5949765 81.8569186,49.2229199 82.036331,49.7835838 C82.2157434,50.3442476 82.4848621,50.8376318 82.8661135,51.2637363 C83.2473649,51.6674142 83.740749,52.0038125 84.3238394,52.228078 C84.9069298,52.4523436 85.6245795,52.5644763 86.4319354,52.5644763 C88.1139269,52.5644763 88.9885625,52.1832249 89.3473873,51.981386 C89.414667,51.9365329 89.4819466,51.8916797 89.3922404,51.7122673 L89.010989,50.6582193 C88.9437094,50.5012335 88.7867235,50.5685131 88.7867235,50.5685131 C88.360619,50.725499 87.7775286,50.9946176 86.4095089,50.9946176 C85.5124467,50.9946176 84.8396501,50.725499 84.4359722,50.321821 C84.0098677,49.8957165 83.7856022,49.267773 83.7631756,48.3931375 L89.5492263,48.3931375 C89.5492263,48.3931375 89.7062122,48.3931375 89.7286387,48.2361516 C89.7286387,48.1240188 89.9304777,47.0026912 89.5492263,45.7019511 C89.414667,45.1412873 89.0334156,44.60305 88.80915,44.3563579 C88.4278986,43.95268 88.0690738,43.6835613 87.7102489,43.5265755 C87.2392913,43.3247365 86.6786275,43.1901772 86.050684,43.1901772 Z M48.1498094,43.1453241 L47.9479704,43.1453241 C46.0641399,43.1453241 44.7633999,44.2890783 44.7633999,45.9037901 L44.7633999,45.9486432 C44.7633999,47.6530612 46.2211258,48.2137251 47.566719,48.5949765 L47.7909845,48.6622561 C48.7777529,48.9762279 49.6299619,49.2229199 49.6299619,49.9181431 L49.6299619,49.9629962 C49.6299619,50.5909397 49.069298,51.0618973 48.1946625,51.0618973 C47.8582642,51.0618973 46.7369365,51.0618973 45.5483292,50.2993945 C45.4137699,50.2096883 45.3240637,50.1648352 45.2119309,50.075129 C45.1670778,50.0527024 45.0100919,49.9854227 44.9428123,50.1648352 L44.5167078,51.3085894 C44.4494281,51.4655752 44.5391343,51.5104283 44.5615609,51.5328549 C44.7409733,51.6674142 44.9428123,51.7571204 45.1222247,51.8692532 C46.1314196,52.4074905 47.0957614,52.5644763 48.1049563,52.5644763 C50.1457726,52.5644763 51.4240861,51.4655752 51.4240861,49.7163041 L51.4240861,49.671451 C51.4240861,48.0567392 49.9887867,47.4512222 48.6431935,47.0251177 L48.4637811,46.9802646 C47.4545862,46.6438663 46.5799507,46.3747477 46.5799507,45.7019511 L46.5799507,45.657098 C46.5799507,45.0740076 47.0957614,44.6703297 47.8806907,44.6703297 C48.7553263,44.6703297 49.8093743,44.9618749 50.4821709,45.3431263 C50.4821709,45.3431263 50.6840099,45.4776856 50.7512895,45.2758466 C50.7961426,45.1637138 51.1325409,44.2442252 51.177394,44.154519 C51.2222471,44.0423862 51.1549675,43.9751065 51.0876878,43.9302534 C50.325185,43.4592958 49.2487105,43.1453241 48.1498094,43.1453241 Z M26.3736264,43.1453241 C25.9475219,43.1453241 25.2298722,43.2126037 24.8261942,43.2798834 C24.8261942,43.2798834 23.5703072,43.5265755 23.03207,43.9302534 C23.03207,43.9302534 22.9199372,43.9975331 22.9872169,44.154519 L23.3908948,45.25342 C23.4357479,45.3879794 23.5927338,45.3431263 23.5927338,45.3431263 L23.620767,45.3291097 C23.6375869,45.3206997 23.6600135,45.3094864 23.68244,45.2982732 C24.8037677,44.6927562 26.2166405,44.7151828 26.2166405,44.7151828 C26.844584,44.7151828 27.3155416,44.8497421 27.6519399,45.0964342 C27.9659116,45.3431263 28.1228975,45.7019511 28.1228975,46.4868805 L28.1228975,46.7335725 C27.6070868,46.6662929 27.1361292,46.6214398 27.1361292,46.6214398 C26.9118636,46.5990132 26.5978919,46.5990132 26.2390671,46.5990132 C25.7456829,46.5990132 25.2522987,46.6662929 24.8037677,46.7784257 C24.3552366,46.8905584 23.9515586,47.0923974 23.5927338,47.3390895 C23.2339089,47.5857816 22.9647903,47.9221799 22.7629513,48.3034313 C22.5611124,48.6846827 22.4489796,49.1332137 22.4489796,49.6490244 C22.4489796,50.1648352 22.5386858,50.6133662 22.7180982,50.9721911 C22.8975107,51.3310159 23.1442027,51.6449877 23.480601,51.8692532 C23.7945728,52.0935187 24.1982507,52.2729312 24.6692083,52.3850639 C25.1177394,52.4971967 25.6335501,52.5420498 26.1942139,52.5420498 C26.7997309,52.5420498 27.3828213,52.4971967 27.9659116,52.3850639 C28.5265755,52.2953577 29.2217986,52.1383718 29.4236376,52.0935187 C29.6254766,52.0486656 29.8273155,51.981386 29.8273155,51.981386 C29.9394483,51.9440084 29.9581371,51.8443348 29.9612519,51.8121485 L29.9618749,46.509307 C29.9618749,45.3431263 29.6479031,44.4909172 29.0423862,43.95268 C28.4368693,43.4144427 27.5398071,43.1453241 26.3736264,43.1453241 Z M78.5826418,43.1453241 C77.8649922,43.1453241 77.2146221,43.2798834 76.6763848,43.5041489 C76.1381476,43.750841 75.66719,44.0872393 75.2859386,44.5133438 C74.9271137,44.9394483 74.6355685,45.4328325 74.4561561,45.9934963 C74.2767437,46.5541601 74.1870375,47.1821036 74.1870375,47.8324736 C74.1870375,49.2453465 74.5682889,50.3891007 75.3307917,51.2413097 C76.0932945,52.0935187 77.2370487,52.5196232 78.7172012,52.5196232 C79.5918367,52.5196232 80.4888989,52.3402108 81.1392689,52.0935187 C81.1392689,52.0935187 81.2738282,52.0262391 81.2065486,51.8916797 L80.780444,50.725499 C80.7355909,50.5685131 80.5561785,50.6133662 80.5561785,50.6133662 C80.3094864,50.7030724 80.0403678,50.7927786 79.7488226,50.8376318 C79.4572774,50.8824849 79.1433057,50.9049114 78.8069074,50.9049114 C77.9771249,50.9049114 77.3267549,50.6582193 76.8557973,50.1648352 C76.3848397,49.671451 76.115721,48.8865216 76.115721,47.8324736 C76.115721,46.8681319 76.3624131,46.1280556 76.7660911,45.5673918 C77.1921956,45.006728 77.820139,44.7376093 78.6723481,44.7376093 C79.3675712,44.7376093 79.928235,44.8273155 80.4888989,45.006728 C80.4888989,45.006728 80.6234582,45.0740076 80.6907378,44.8945952 C80.8477237,44.4684907 80.9598565,44.1769455 81.1168423,43.7284144 C81.1616954,43.5938551 81.0495627,43.549002 81.0047096,43.5265755 C80.780444,43.4368693 80.2646333,43.3023099 79.8609554,43.2350303 C79.5021305,43.1901772 79.0535995,43.1453241 78.5826418,43.1453241 Z M62.771922,43.1677506 C62.0766988,43.1677506 61.4487553,43.3023099 60.9329446,43.5265755 C60.4171339,43.7732675 59.9686028,44.1096658 59.609778,44.5357704 C59.2509531,44.9618749 59.004261,45.455259 58.8248486,46.0159229 C58.6678627,46.5765867 58.5781565,47.2045302 58.5781565,47.8549002 C58.5781565,48.5052702 58.6678627,49.1332137 58.8248486,49.6938776 C58.9818345,50.2545414 59.2509531,50.7703521 59.609778,51.1740301 C59.9686028,51.6001346 60.3947073,51.9365329 60.9329446,52.1607984 C61.4487553,52.4074905 62.0766988,52.5196232 62.771922,52.5196232 C63.4671451,52.5196232 64.072662,52.4074905 64.6108993,52.1607984 C65.12671,51.9141063 65.5752411,51.577708 65.9340659,51.1740301 C66.2928908,50.7479255 66.5395829,50.2545414 66.7189953,49.6938776 C66.8759812,49.1332137 66.9656874,48.5052702 66.9656874,47.8549002 C66.9881139,47.2045302 66.8984077,46.5765867 66.7189953,46.0159229 C66.5620094,45.455259 66.2928908,44.9394483 65.9340659,44.5357704 C65.5752411,44.1096658 65.1491366,43.7732675 64.6108993,43.5265755 C64.0950886,43.2798834 63.4671451,43.1677506 62.771922,43.1677506 Z M71.3388652,43.5265755 C70.9800404,43.6835613 70.5763624,43.95268 70.3520969,44.2442252 L70.3520969,43.5265755 C70.3520969,43.4368693 70.2848172,43.347163 70.195111,43.347163 L68.7149585,43.347163 C68.6252523,43.347163 68.5579726,43.4144427 68.5579726,43.5265755 L68.5579726,52.1832249 C68.5579726,52.2729312 68.6252523,52.3626374 68.7373851,52.3626374 L70.2623907,52.3626374 C70.3520969,52.3626374 70.4418031,52.2953577 70.4418031,52.1832249 L70.4418031,47.8549002 C70.4418031,47.2718098 70.5090828,46.6887194 70.6436421,46.3298946 C70.7782014,45.9710697 70.9351873,45.6795246 71.1594528,45.4776856 C71.3612918,45.2758466 71.6079839,45.1188607 71.8771025,45.0515811 C72.1462211,44.9618749 72.4377663,44.9394483 72.6620318,44.9394483 C72.9760036,44.9394483 73.2899753,45.0291545 73.2899753,45.0291545 C73.4021081,45.0515811 73.4693878,44.9618749 73.5142409,44.8721686 C73.559094,44.60305 73.8506392,43.7956941 73.8954923,43.6387082 C73.9403454,43.5041489 73.8506392,43.4368693 73.8057861,43.4368693 C73.7160798,43.3920161 73.2226957,43.3023099 72.8414443,43.2798834 C72.101368,43.2350303 71.6976901,43.347163 71.3388652,43.5265755 Z M33.5501233,39.6019287 L32.0026912,39.6019287 C31.912985,39.6019287 31.8457053,39.6916349 31.8457053,39.7813411 L31.8457053,39.7813411 L31.8457053,52.1607984 C31.8457053,52.2505046 31.912985,52.3402108 32.0026912,52.3402108 L32.0026912,52.3402108 L33.5501233,52.3402108 C33.6398296,52.3402108 33.7071092,52.2505046 33.7071092,52.1607984 L33.7071092,52.1607984 L33.7071092,39.7813411 C33.7071092,39.6692083 33.6398296,39.6019287 33.5501233,39.6019287 L33.5501233,39.6019287 Z M26.5081857,48.0567392 C27.3379682,48.0567392 28.0780444,48.1912985 28.0780444,48.1912985 L28.0780444,50.8376318 C28.0780444,50.8376318 27.3379682,50.9946176 26.5081857,51.0394707 C25.3644315,51.1067504 24.8261942,50.7030724 24.8261942,50.7030724 C24.6019287,50.52366 24.5570756,50.4788069 24.4897959,50.3666741 C24.3776632,50.1872617 24.3103835,49.9405696 24.3103835,49.6041713 C24.3103835,49.0883606 24.4897959,48.7295358 24.8261942,48.4828437 C24.8261942,48.4828437 25.3195784,48.0567392 26.5081857,48.0567392 Z M62.7943485,44.7376093 C63.5568513,44.7376093 64.0950886,45.006728 64.4539134,45.5449652 C64.8351648,46.0832025 65.0145773,46.8681319 65.0145773,47.8549002 C65.0145773,48.8416685 64.8351648,49.6265979 64.4539134,50.1872617 C64.0950886,50.725499 63.5568513,50.9946176 62.7943485,50.9946176 C62.0318457,50.9946176 61.4936084,50.725499 61.1347836,50.1872617 C60.7759587,49.6265979 60.5965463,48.8416685 60.5965463,47.8549002 C60.5965463,46.8681319 60.7759587,46.0832025 61.1347836,45.5449652 C61.4936084,45.006728 62.0318457,44.7376093 62.7943485,44.7376093 Z M39.4931599,44.6927562 C40.2556627,44.6927562 40.7490469,44.9843014 41.1078717,45.5449652 C41.3545638,45.9037901 41.44427,46.3747477 41.4891231,46.912985 L37.3626374,46.912985 C37.4523436,46.3523211 37.5869029,45.9037901 37.833595,45.5449652 C38.1924198,45.006728 38.7306571,44.6927562 39.4931599,44.6927562 Z M85.9161247,44.6927562 C86.6786275,44.6927562 87.1720117,44.9843014 87.5308365,45.5449652 C87.7775286,45.9037901 87.8672348,46.3747477 87.9120879,46.912985 L83.7856022,46.912985 C83.8753084,46.3523211 84.0098677,45.9037901 84.2565598,45.5449652 C84.6153846,45.006728 85.1536219,44.6927562 85.9161247,44.6927562 Z" id="Combined-Shape"></path>
            </g>
        </g>
    </g>
</svg>