<?xml version="1.0" encoding="UTF-8"?>
<svg width="100px" height="100px" viewBox="0 0 100 100" version="1.1" xmlns="http://www.w3.org/2000/svg" xmlns:xlink="http://www.w3.org/1999/xlink">
    <title>01290048-e40f-4cda-a910-509e6e33d89f@1.00x</title>
    <g id="Symbols" stroke="none" stroke-width="1" fill="none" fill-rule="evenodd">
        <g id="⚡️Logo/Complete/Other/SVR">
            <g id="Group" transform="translate(0.000000, 7.000000)">
                <path d="M93.2954423,36.4150737 C89.4348718,35.0345166 84.0982009,34.344238 78.8750761,34.5743309 C73.7654976,34.8044237 68.8830114,35.8398415 63.7734329,35.954888 C57.6419386,36.0699344 51.9646291,34.9194701 46.7415044,33.538913 C41.6319258,32.2734023 36.5223472,30.7777988 30.5043992,30.2025667 C20.1716959,29.2821953 8.81707687,31.5831238 3.70749831,35.3796558 C-1.51562643,39.0611414 -0.94789548,43.7780449 3.70749831,47.5745769 C8.36289211,51.3711089 16.8788564,54.362316 26.3031901,56.2030588 C30.7314916,57.1234302 35.7275239,57.8137087 40.4964639,57.353523 C46.0602272,56.7782909 49.9207977,54.8225017 53.667822,53.0968053 C57.4148462,51.3711089 62.07024,49.5303661 67.8610957,49.6454125 C75.4686904,49.6454125 79.5563533,51.6012018 87.0504018,51.1410161 C101.470768,50.4507375 100.448852,43.8930913 99.5404827,41.5921628 C98.8592056,39.5213271 97.1560128,37.7956308 93.2954423,36.4150737 Z" id="Path" fill="#E3F2FD"></path>
                <path d="M37.5,8.33333333 L37.5,5.83333333 C37.5,8.0952381 42.5510204,10 48.75,10 C54.9489796,10 60,8.0952381 60,5.83333333 L60,8.33333333 C60,10.5952381 54.9489796,12.5 48.75,12.5 C42.5510204,12.3809524 37.5,10.5952381 37.5,8.33333333 Z M48.75,7.5 C54.9489796,7.5 60,5.78571429 60,3.75 C60,1.71428571 54.9489796,0 48.75,0 C42.5510204,0 37.5,1.71428571 37.5,3.75 C37.5,5.78571429 42.5510204,7.5 48.75,7.5 Z M48.75,16.6666667 C54.9489796,16.6666667 60,14.969697 60,12.9545455 L60,10.8333333 C60,12.8484848 54.9489796,14.5454545 48.75,14.5454545 C42.5510204,14.5454545 37.5,12.8484848 37.5,10.8333333 L37.5,13.0606061 C37.5,15.0757576 42.5510204,16.6666667 48.75,16.6666667 Z M48.3333333,31.6666667 L48.3333333,29.1666667 C42.3639456,29.1666667 37.5,27.2619048 37.5,25 L37.5,27.5 C37.5,29.7619048 42.3639456,31.6666667 48.3333333,31.6666667 Z M48.75,22.5 C54.9489796,22.5 60,20.5952381 60,18.3333333 L60,15.8333333 C60,18.0952381 54.9489796,20 48.75,20 C42.5510204,20 37.5,18.0952381 37.5,15.8333333 L37.5,18.3333333 C37.5,20.7142857 42.5510204,22.5 48.75,22.5 Z M48.3333333,35.8333333 L48.3333333,34.1666667 C42.3639456,34.1666667 37.5,32.2619048 37.5,30 L37.5,32.5 C37.5,34.7619048 42.3639456,36.6666667 48.3333333,36.6666667 C48.3333333,36.4285714 48.3333333,36.0714286 48.3333333,35.8333333 Z M48.6363636,26.6666667 C48.6363636,26.6666667 48.6363636,26.6666667 48.6363636,26.6666667 C48.75,25.7142857 49.2045455,24.8809524 50,24.1666667 C49.5454545,24.1666667 49.0909091,24.1666667 48.6363636,24.1666667 C42.5,24.1666667 37.5,22.2619048 37.5,20 L37.5,22.5 C37.5,24.7619048 42.5,26.6666667 48.6363636,26.6666667 Z M74.1666667,34.1666667 C74.1666667,35.1190476 74.1666667,36.0714286 74.1666667,36.6666667 C80.1360544,36.6666667 85,34.7619048 85,32.5 L85,30 C84.8894558,32.2619048 80.1360544,34.1666667 74.1666667,34.1666667 Z M73.75,16.6666667 C79.9489796,16.6666667 85,14.952381 85,12.9166667 C85,10.8809524 79.9489796,9.16666667 73.75,9.16666667 C67.5510204,9.16666667 62.5,10.8809524 62.5,12.9166667 C62.5,15.0595238 67.5510204,16.6666667 73.75,16.6666667 Z M73.75,20 C67.5510204,20 62.5,18.0952381 62.5,15.8333333 L62.5,18.3333333 C62.5,20.5952381 67.5510204,22.5 73.75,22.5 C79.9489796,22.5 85,20.5952381 85,18.3333333 L85,15.8333333 C84.8852041,18.2142857 79.9489796,20 73.75,20 Z M73.8636364,24.1666667 C73.4090909,24.1666667 72.9545455,24.1666667 72.5,24.1666667 C73.2954545,24.8809524 73.75,25.7142857 73.8636364,26.6666667 C73.8636364,26.6666667 73.8636364,26.6666667 73.8636364,26.6666667 C80,26.6666667 85,24.7619048 85,22.5 L85,20 C84.8863636,22.2619048 80,24.1666667 73.8636364,24.1666667 Z M74.1666667,29.1666667 C74.1666667,29.8809524 74.1666667,30.7142857 74.1666667,31.6666667 C80.1360544,31.6666667 85,29.7619048 85,27.5 L85,25 C84.8894558,27.2619048 80.1360544,29.1666667 74.1666667,29.1666667 Z M72.5,27.0833333 C72.5,29.1190476 67.4489796,30.8333333 61.25,30.8333333 C55.0510204,30.8333333 50,29.1190476 50,27.0833333 C50,25.047619 55.0510204,23.3333333 61.25,23.3333333 C67.4489796,23.3333333 72.5,25.047619 72.5,27.0833333 Z M61.25,34.1666667 C55.0510204,34.1666667 50,32.2619048 50,30 L50,32.5 C50,34.7619048 55.0510204,36.6666667 61.25,36.6666667 C67.4489796,36.6666667 72.5,34.7619048 72.5,32.5 L72.5,30 C72.5,32.2619048 67.4489796,34.1666667 61.25,34.1666667 Z M61.25,38.3333333 C55.0510204,38.3333333 50,36.4285714 50,34.1666667 L50,36.6666667 C50,38.9285714 55.0510204,40.8333333 61.25,40.8333333 C67.4489796,40.8333333 72.5,38.9285714 72.5,36.6666667 L72.5,34.1666667 C72.5,36.4285714 67.4489796,38.3333333 61.25,38.3333333 Z" id="Shape" fill="#004A93"></path>
                <path d="M28.3333333,5.83333333 C19.1285875,5.83333333 11.6666667,13.2952542 11.6666667,22.5 C11.6666667,31.7047458 19.1285875,39.1666667 28.3333333,39.1666667 C37.5380792,39.1666667 45,31.7047458 45,22.5 C45,13.2952542 37.5380792,5.83333333 28.3333333,5.83333333 Z" id="Path" fill="#FFFFFF"></path>
                <path d="M28.3333333,7.5 C36.6176046,7.5 43.3333333,14.2157288 43.3333333,22.5 C43.3333333,30.7842712 36.6176046,37.5 28.3333333,37.5 C20.0490621,37.5 13.3333333,30.7842712 13.3333333,22.5 C13.3333333,14.2157288 20.0490621,7.5 28.3333333,7.5 Z M28.7616822,14.1666667 C25.3738318,14.1666667 22.453271,16.576087 21.5186916,19.7886473 L20.3504673,19.7886473 L20,21.6243961 L21.2850467,21.6243961 L21.2850467,22.6570048 L21.2850467,22.6570048 L20.3504673,22.6570048 L20,24.4927536 L21.635514,24.4927536 C22.5700935,27.705314 25.4906542,30 28.8785047,30 C30.1635514,30 31.4485981,29.6557971 32.5,29.0821256 C32.0327103,28.0495169 31.682243,27.1316425 31.3317757,26.2137681 C30.6308411,26.6727053 29.6962617,27.0169082 28.8785047,27.0169082 C27.1261682,27.0169082 25.6074766,25.9842995 24.7897196,24.4927536 L29.1121495,24.4927536 L29.4626168,22.6570048 L24.2056075,22.6570048 L24.2056075,21.6243961 L24.2056075,21.6243961 L29.6962617,21.6243961 L30.046729,19.7886473 L24.6728972,19.7886473 C25.4906542,18.1823671 27.0093458,17.0350242 28.7616822,17.0350242 C29.5794393,17.0350242 30.3971963,17.2644928 30.9813084,17.72343 C31.5654206,16.9202899 31.682243,15.8876812 32.1495327,14.9698068 C31.0981308,14.3961353 29.9299065,14.1666667 28.7616822,14.1666667 Z" id="Combined-Shape" fill="#00A4E3"></path>
            </g>
            <path d="M38.54,89.28 C40.1,89.28 41.3166667,88.9366667 42.19,88.25 C43.0633333,87.5633333 43.5,86.4666667 43.5,84.96 C43.5,84.52 43.46,84.12 43.38,83.76 C43.3,83.4 43.1566667,83.07 42.95,82.77 C42.7433333,82.47 42.4666667,82.19 42.12,81.93 C41.7733333,81.67 41.3266667,81.42 40.78,81.18 L38.56,80.22 C37.9466667,79.9666667 37.5466667,79.69 37.36,79.39 C37.1733333,79.09 37.08,78.72 37.08,78.28 C37.08,78.0666667 37.1033333,77.86 37.15,77.66 C37.1966667,77.46 37.2833333,77.2833333 37.41,77.13 C37.5366667,76.9766667 37.7066667,76.8533333 37.92,76.76 C38.1333333,76.6666667 38.4,76.62 38.72,76.62 C39.28,76.62 39.68,76.8033333 39.92,77.17 C40.16,77.5366667 40.28,78.06 40.28,78.74 L43.04,78.74 L43.04,78.34 C43.04,77.66 42.93,77.0766667 42.71,76.59 C42.49,76.1033333 42.1833333,75.7033333 41.79,75.39 C41.3966667,75.0766667 40.93,74.85 40.39,74.71 C39.85,74.57 39.26,74.5 38.62,74.5 C37.2466667,74.5 36.1666667,74.8466667 35.38,75.54 C34.5933333,76.2333333 34.2,77.2866667 34.2,78.7 C34.2,79.2866667 34.2733333,79.8033333 34.42,80.25 C34.5666667,80.6966667 34.7966667,81.09 35.11,81.43 C35.4233333,81.77 35.8133333,82.0666667 36.28,82.32 C36.7466667,82.5733333 37.3,82.8066667 37.94,83.02 C38.42,83.18 38.8233333,83.3366667 39.15,83.49 C39.4766667,83.6433333 39.74,83.8133333 39.94,84 C40.14,84.1866667 40.2833333,84.3966667 40.37,84.63 C40.4566667,84.8633333 40.5,85.14 40.5,85.46 C40.5,86.06 40.3233333,86.5033333 39.97,86.79 C39.6166667,87.0766667 39.22,87.22 38.78,87.22 C38.4066667,87.22 38.0966667,87.1666667 37.85,87.06 C37.6033333,86.9533333 37.4066667,86.8066667 37.26,86.62 C37.1133333,86.4333333 37.0133333,86.2033333 36.96,85.93 C36.9066667,85.6566667 36.88,85.3533333 36.88,85.02 L36.88,84.6 L34,84.6 L34,85.18 C34,86.5 34.35,87.5133333 35.05,88.22 C35.75,88.9266667 36.9133333,89.28 38.54,89.28 Z M47.82,89.06 L47.82,83.02 L49.36,83.02 C49.96,83.02 50.3866667,83.18 50.64,83.5 C50.8933333,83.82 51.0333333,84.26 51.06,84.82 L51.14,87.56 C51.1533333,87.84 51.18,88.11 51.22,88.37 C51.26,88.63 51.3533333,88.86 51.5,89.06 L54.62,89.06 L54.62,88.94 C54.3533333,88.7933333 54.18,88.52 54.1,88.12 C54.0466667,87.72 54.0066667,87.14 53.98,86.38 C53.9666667,85.9933333 53.9533333,85.6433333 53.94,85.33 C53.9266667,85.0166667 53.9066667,84.7266667 53.88,84.46 C53.8,83.66 53.5933333,83.08 53.26,82.72 C52.9266667,82.36 52.4,82.1266667 51.68,82.02 L51.68,81.98 C52.4933333,81.8066667 53.0933333,81.4166667 53.48,80.81 C53.8666667,80.2033333 54.06,79.42 54.06,78.46 C54.06,77.22 53.7266667,76.2966667 53.06,75.69 C52.3933333,75.0833333 51.46,74.78 50.26,74.78 L44.94,74.78 L44.94,89.06 L47.82,89.06 Z M49.02,81.02 L47.82,81.02 L47.82,76.9 L49.18,76.9 C50.5133333,76.9 51.18,77.56 51.18,78.88 C51.18,79.6533333 50.9933333,80.2033333 50.62,80.53 C50.2466667,80.8566667 49.7133333,81.02 49.02,81.02 Z M62.1,89.06 L65.38,74.78 L62.4,74.78 L60.28,85.34 L60.22,85.34 L58.2,74.78 L55.12,74.78 L58.4,89.06 L62.1,89.06 Z" id="SRV" fill="#61616A"></path>
        </g>
    </g>
</svg>